{"title":"Alarmed.2014.UNCUT.BDRip.x264-MenaceIISociety","uid":12227762,"size":840119166,"categoryP":"video","categoryS":"movies","magnet":"?xt=urn:btih:ff3e9e8d506ecd722337f844b1a2af48b0fe79c7&amp;dn=Alarmed.2014.UNCUT.BDRip.x264-MenaceIISociety&amp;tr=udp%3A%2F%2Ftracker.openbittorrent.com%3A80&amp;tr=udp%3A%2F%2Fopen.demonii.com%3A1337&amp;tr=udp%3A%2F%2Ftracker.coppersurfer.tk%3A6969&amp;tr=udp%3A%2F%2Fexodus.desync.com%3A6969","seeders":2,"leechers":0,"uploader":"xxxlavalxxx","files":4,"time":1439501951,"description":" &lt;a href=&quot;http://extraimago.com/image/qMb&quot; rel=&quot;nofollow&quot; target=&quot;_NEW&quot;&gt;http://extraimago.com/image/qMb&lt;/a&gt;\n &lt;a href=&quot;\nhttp://www.imdb.com/title/tt4205920/&quot; rel=&quot;nofollow&quot; target=&quot;_NEW&quot;&gt;\nhttp://www.imdb.com/title/tt4205920/&lt;/a&gt;\n\n\nTrapped aboard the family yacht, Samantha lives out her personal Hell, night after night, answering to the cruel and painful demands of the ship's alarm system. Taking a journey into the depths of depravity, she wakes each morning to the disfiguring scars left by the previous night's horror and searches for the answer to a missing memory: 'Could I have killed my family... Or did Hell get it wrong?'\n\nDirector: Matt Lofgren\nWriter: Matt Lofgren\nStars: Jennifer Stuckert, Olivia Aaron, Heidi Brigman\nGenres: Horror | Thriller\nCountry: USA\nLanguage: English\n\n\nAlarmed.2014.UNCUT.BDRip.x264-MenaceIISociety\n &lt;a href=&quot;\nhttp://www.imdb.com/title/tt4205920/&quot; rel=&quot;nofollow&quot; target=&quot;_NEW&quot;&gt;\nhttp://www.imdb.com/title/tt4205920/&lt;/a&gt;\nSource: COMPLETE BLURAY-MOViEiT [THANKS]\n\nGeneral\nComplete name: Alarmed.2014.UNCUT.BDRip.x264-MenaceIISociety.mp4\nFormat: MPEG-4\nFormat profile: Base Media\nCodec ID: isom\nFile size: 779 MiB\nDuration: 1h 29mn\nOverall bit rate mode: Variable\nOverall bit rate: 1 211 Kbps\nEncoded date: UTC 2015-08-13 15:27:00\nTagged date: UTC 2015-08-13 15:27:00\n\nVideo\nID: 1\nFormat: AVC\nFormat/Info: Advanced Video Codec\nFormat profile: &lt;a class=&quot;__cf_email__&quot; href=&quot;/cdn-cgi/l/email-protection&quot; data-cfemail=&quot;f4bc9d939cb4b8c0dac5&quot;&gt;[email&amp;#160;protected]&lt;/a&gt;&lt;script data-cfhash='f9e31' type=&quot;text/javascript&quot;&gt;\n/* &lt;![CDATA[ */!function(){try{var t=&quot;currentScript&quot;in document?document.currentScript:function(){for(var t=document.getElementsByTagName(&quot;script&quot;),e=t.length;e--;)if(t[e].getAttribute(&quot;data-cfhash&quot;))return t[e]}();if(t&amp;&amp;t.previousSibling){var e,r,n,i,c=t.previousSibling,a=c.getAttribute(&quot;data-cfemail&quot;);if(a){for(e=&quot;&quot;,r=parseInt(a.substr(0,2),16),n=2;a.length-n;n+=2)i=parseInt(a.substr(n,2),16)^r,e+=String.fromCharCode(i);e=document.createTextNode(e),c.parentNode.replaceChild(e,c)}t.parentNode.removeChild(t);}}catch(u){}}()/* ]]&gt; */&lt;/script&gt;\nFormat settings, CABAC: Yes\nFormat settings, ReFrames: 3 frames\nCodec ID: avc1\nCodec ID/Info: Advanced Video Coding\nDuration: 1h 29mn\nBit rate mode: Variable\nBit rate: 854 Kbps\nMaximum bit rate: 40.0 Mbps\nWidth: 720 pixels\nHeight: 400 pixels\nDisplay aspect ratio: 16:9\nFrame rate mode: Constant\nFrame rate: 23.976 fps\nColor space: YUV\nChroma subsampling: 4:2:0\nBit depth: 8 bits\nScan type: Progressive\nBits/(Pixel*Frame): 0.124\nStream size: 550 MiB (71%)\nWriting library: x264 core 148 r2579 73ae2d1\n\nAudio\nID: 2\nFormat: AAC\nFormat/Info: Advanced Audio Codec\nFormat profile: LC\nCodec ID: 40\nDuration: 1h 29mn\nBit rate mode: Variable\nBit rate: 353 Kbps\nMaximum bit rate: 507 Kbps\nChannel(s): 6 channels\nChannel positions: Front: L C R, Side: L R, LFE\nSampling rate: 48.0 KHz\nCompression mode: Lossy\nStream size: 227 MiB (29%)\nLanguage: English\nEncoded date: UTC 2015-08-13 14:33:09\nTagged date: UTC 2015-08-13 15:27:43 \n\n &lt;a href=&quot;\nhttp://extraimago.com/image/qM3&quot; rel=&quot;nofollow&quot; target=&quot;_NEW&quot;&gt;\nhttp://extraimago.com/image/qM3&lt;/a&gt; &lt;a href=&quot;\nhttp://extraimago.com/image/qM9&quot; rel=&quot;nofollow&quot; target=&quot;_NEW&quot;&gt;\nhttp://extraimago.com/image/qM9&lt;/a&gt; &lt;a href=&quot;\nhttp://extraimago.com/image/qMM&quot; rel=&quot;nofollow&quot; target=&quot;_NEW&quot;&gt;\nhttp://extraimago.com/image/qMM&lt;/a&gt; &lt;a href=&quot;\nhttp://extraimago.com/image/qMU&quot; rel=&quot;nofollow&quot; target=&quot;_NEW&quot;&gt;\nhttp://extraimago.com/image/qMU&lt;/a&gt; &lt;a href=&quot;\nhttp://extraimago.com/image/qMz&quot; rel=&quot;nofollow&quot; target=&quot;_NEW&quot;&gt;\nhttp://extraimago.com/image/qMz&lt;/a&gt;","torrent":{"xt":"urn:btih:ff3e9e8d506ecd722337f844b1a2af48b0fe79c7","amp;dn":"Alarmed.2014.UNCUT.BDRip.x264-MenaceIISociety","amp;tr":["udp%3A%2F%2Ftracker.openbittorrent.com%3A80","udp%3A%2F%2Fopen.demonii.com%3A1337","udp%3A%2F%2Ftracker.coppersurfer.tk%3A6969","udp%3A%2F%2Fexodus.desync.com%3A6969"],"infoHash":"ff3e9e8d506ecd722337f844b1a2af48b0fe79c7","infoHashBuffer":{"type":"Buffer","data":[255,62,158,141,80,110,205,114,35,55,248,68,177,162,175,72,176,254,121,199]},"announce":[],"urlList":[]}}